<svg id="visual" viewBox="0 0 900 50" width="900" height="50" xmlns="http://www.w3.org/2000/svg" xmlns:xlink="http://www.w3.org/1999/xlink" version="1.1"><rect x="0" y="0" width="900" height="50" fill="#001220"></rect><path d="M0 7L13.7 8.3C27.3 9.7 54.7 12.3 82 13C109.3 13.7 136.7 12.3 163.8 11.5C191 10.7 218 10.3 245.2 10.8C272.3 11.3 299.7 12.7 327 13.8C354.3 15 381.7 16 409 15.3C436.3 14.7 463.7 12.3 491 10.5C518.3 8.7 545.7 7.3 573 8.2C600.3 9 627.7 12 654.8 11.8C682 11.7 709 8.3 736.2 8.5C763.3 8.7 790.7 12.3 818 14C845.3 15.7 872.7 15.3 886.3 15.2L900 15L900 51L886.3 51C872.7 51 845.3 51 818 51C790.7 51 763.3 51 736.2 51C709 51 682 51 654.8 51C627.7 51 600.3 51 573 51C545.7 51 518.3 51 491 51C463.7 51 436.3 51 409 51C381.7 51 354.3 51 327 51C299.7 51 272.3 51 245.2 51C218 51 191 51 163.8 51C136.7 51 109.3 51 82 51C54.7 51 27.3 51 13.7 51L0 51Z" fill="#1a7a59"></path><path d="M0 23L13.7 23C27.3 23 54.7 23 82 24C109.3 25 136.7 27 163.8 27.8C191 28.7 218 28.3 245.2 28.7C272.3 29 299.7 30 327 29.2C354.3 28.3 381.7 25.7 409 23.5C436.3 21.3 463.7 19.7 491 19.5C518.3 19.3 545.7 20.7 573 21C600.3 21.3 627.7 20.7 654.8 22C682 23.3 709 26.7 736.2 26.7C763.3 26.7 790.7 23.3 818 21.7C845.3 20 872.7 20 886.3 20L900 20L900 51L886.3 51C872.7 51 845.3 51 818 51C790.7 51 763.3 51 736.2 51C709 51 682 51 654.8 51C627.7 51 600.3 51 573 51C545.7 51 518.3 51 491 51C463.7 51 436.3 51 409 51C381.7 51 354.3 51 327 51C299.7 51 272.3 51 245.2 51C218 51 191 51 163.8 51C136.7 51 109.3 51 82 51C54.7 51 27.3 51 13.7 51L0 51Z" fill="#176846"></path><path d="M0 38L13.7 37.2C27.3 36.3 54.7 34.7 82 33.7C109.3 32.7 136.7 32.3 163.8 33.5C191 34.7 218 37.3 245.2 38.5C272.3 39.7 299.7 39.3 327 38.8C354.3 38.3 381.7 37.7 409 36.8C436.3 36 463.7 35 491 34.8C518.3 34.7 545.7 35.3 573 35.5C600.3 35.7 627.7 35.3 654.8 35.3C682 35.3 709 35.7 736.2 37.2C763.3 38.7 790.7 41.3 818 40.7C845.3 40 872.7 36 886.3 34L900 32L900 51L886.3 51C872.7 51 845.3 51 818 51C790.7 51 763.3 51 736.2 51C709 51 682 51 654.8 51C627.7 51 600.3 51 573 51C545.7 51 518.3 51 491 51C463.7 51 436.3 51 409 51C381.7 51 354.3 51 327 51C299.7 51 272.3 51 245.2 51C218 51 191 51 163.8 51C136.7 51 109.3 51 82 51C54.7 51 27.3 51 13.7 51L0 51Z" fill="#125635"></path></svg>