<svg id="visual" viewBox="0 0 900 50" width="900" height="50" xmlns="http://www.w3.org/2000/svg" xmlns:xlink="http://www.w3.org/1999/xlink" version="1.1"><rect x="0" y="0" width="900" height="50" fill="#001220"></rect><path d="M0 44L13.7 43.5C27.3 43 54.7 42 82 41.7C109.3 41.3 136.7 41.7 163.8 40C191 38.3 218 34.7 245.2 34.5C272.3 34.3 299.7 37.7 327 38.7C354.3 39.7 381.7 38.3 409 37.7C436.3 37 463.7 37 491 38C518.3 39 545.7 41 573 40.7C600.3 40.3 627.7 37.7 654.8 36.3C682 35 709 35 736.2 36C763.3 37 790.7 39 818 39.8C845.3 40.7 872.7 40.3 886.3 40.2L900 40L900 0L886.3 0C872.7 0 845.3 0 818 0C790.7 0 763.3 0 736.2 0C709 0 682 0 654.8 0C627.7 0 600.3 0 573 0C545.7 0 518.3 0 491 0C463.7 0 436.3 0 409 0C381.7 0 354.3 0 327 0C299.7 0 272.3 0 245.2 0C218 0 191 0 163.8 0C136.7 0 109.3 0 82 0C54.7 0 27.3 0 13.7 0L0 0Z" fill="#26cda9"></path><path d="M0 24L13.7 24.5C27.3 25 54.7 26 82 27C109.3 28 136.7 29 163.8 27.5C191 26 218 22 245.2 22.2C272.3 22.3 299.7 26.7 327 26.5C354.3 26.3 381.7 21.7 409 19.3C436.3 17 463.7 17 491 17.5C518.3 18 545.7 19 573 19.8C600.3 20.7 627.7 21.3 654.8 21.7C682 22 709 22 736.2 23.2C763.3 24.3 790.7 26.7 818 28.2C845.3 29.7 872.7 30.3 886.3 30.7L900 31L900 0L886.3 0C872.7 0 845.3 0 818 0C790.7 0 763.3 0 736.2 0C709 0 682 0 654.8 0C627.7 0 600.3 0 573 0C545.7 0 518.3 0 491 0C463.7 0 436.3 0 409 0C381.7 0 354.3 0 327 0C299.7 0 272.3 0 245.2 0C218 0 191 0 163.8 0C136.7 0 109.3 0 82 0C54.7 0 27.3 0 13.7 0L0 0Z" fill="#16b08d"></path><path d="M0 11L13.7 11.8C27.3 12.7 54.7 14.3 82 15C109.3 15.7 136.7 15.3 163.8 15.7C191 16 218 17 245.2 17.3C272.3 17.7 299.7 17.3 327 15.5C354.3 13.7 381.7 10.3 409 10.7C436.3 11 463.7 15 491 14.5C518.3 14 545.7 9 573 7.8C600.3 6.7 627.7 9.3 654.8 10.3C682 11.3 709 10.7 736.2 11.5C763.3 12.3 790.7 14.7 818 15.7C845.3 16.7 872.7 16.3 886.3 16.2L900 16L900 0L886.3 0C872.7 0 845.3 0 818 0C790.7 0 763.3 0 736.2 0C709 0 682 0 654.8 0C627.7 0 600.3 0 573 0C545.7 0 518.3 0 491 0C463.7 0 436.3 0 409 0C381.7 0 354.3 0 327 0C299.7 0 272.3 0 245.2 0C218 0 191 0 163.8 0C136.7 0 109.3 0 82 0C54.7 0 27.3 0 13.7 0L0 0Z" fill="#009473"></path></svg>