<?xml version="1.0" encoding="UTF-8" standalone="no"?>
<svg
   id="visual"
   viewBox="0 0 900 50"
   width="900"
   height="50"
   version="1.1"
   sodipodi:docname="layer1.svg"
   inkscape:version="1.1.2 (0a00cf5339, 2022-02-04, custom)"
   xmlns:inkscape="http://www.inkscape.org/namespaces/inkscape"
   xmlns:sodipodi="http://sodipodi.sourceforge.net/DTD/sodipodi-0.dtd"
   xmlns="http://www.w3.org/2000/svg"
   xmlns:svg="http://www.w3.org/2000/svg">
  <defs
     id="defs33" />
  <sodipodi:namedview
     id="namedview31"
     pagecolor="#ffffff"
     bordercolor="#666666"
     borderopacity="1.0"
     inkscape:pageshadow="2"
     inkscape:pageopacity="0.0"
     inkscape:pagecheckerboard="0"
     showgrid="false"
     inkscape:zoom="3.7680934"
     inkscape:cx="103.36793"
     inkscape:cy="44.452189"
     inkscape:window-width="1368"
     inkscape:window-height="850"
     inkscape:window-x="-6"
     inkscape:window-y="-6"
     inkscape:window-maximized="1"
     inkscape:current-layer="visual" />
  <rect
     x="0"
     y="0"
     width="0"
     height="48.673069"
     fill="#001220"
     id="rect22" />
  <path
     d="M0 31L13.7 32.7C27.3 34.3 54.7 37.7 82 39.5C109.3 41.3 136.7 41.7 163.8 40.5C191 39.3 218 36.7 245.2 34.7C272.3 32.7 299.7 31.3 327 32.2C354.3 33 381.7 36 409 36C436.3 36 463.7 33 491 31.3C518.3 29.7 545.7 29.3 573 30.8C600.3 32.3 627.7 35.7 654.8 36.3C682 37 709 35 736.2 34C763.3 33 790.7 33 818 34C845.3 35 872.7 37 886.3 38L900 39L900 0L886.3 0C872.7 0 845.3 0 818 0C790.7 0 763.3 0 736.2 0C709 0 682 0 654.8 0C627.7 0 600.3 0 573 0C545.7 0 518.3 0 491 0C463.7 0 436.3 0 409 0C381.7 0 354.3 0 327 0C299.7 0 272.3 0 245.2 0C218 0 191 0 163.8 0C136.7 0 109.3 0 82 0C54.7 0 27.3 0 13.7 0L0 0Z"
     fill="#1a7a59"
     id="path24" />
  <path
     d="M0 24L13.7 24.5C27.3 25 54.7 26 82 26.3C109.3 26.7 136.7 26.3 163.8 25.3C191 24.3 218 22.7 245.2 23.5C272.3 24.3 299.7 27.7 327 28.2C354.3 28.7 381.7 26.3 409 24.8C436.3 23.3 463.7 22.7 491 23.5C518.3 24.3 545.7 26.7 573 26.3C600.3 26 627.7 23 654.8 23.2C682 23.3 709 26.7 736.2 26.2C763.3 25.7 790.7 21.3 818 19.7C845.3 18 872.7 19 886.3 19.5L900 20L900 0L886.3 0C872.7 0 845.3 0 818 0C790.7 0 763.3 0 736.2 0C709 0 682 0 654.8 0C627.7 0 600.3 0 573 0C545.7 0 518.3 0 491 0C463.7 0 436.3 0 409 0C381.7 0 354.3 0 327 0C299.7 0 272.3 0 245.2 0C218 0 191 0 163.8 0C136.7 0 109.3 0 82 0C54.7 0 27.3 0 13.7 0L0 0Z"
     fill="#176846"
     id="path26" />
  <path
     d="M 0,10 13.7,9.3 C 27.3,8.7 54.7,7.3 82,6.8 109.3,6.3 136.7,6.7 163.8,7 191,7.3 218,7.7 245.2,7.8 272.3,8 299.7,8 327,9.5 c 27.3,1.5 54.7,4.5 82,5.8 27.3,1.4 54.7,1 82,0.4 27.3,-0.7 54.7,-1.7 82,-2.4 27.3,-0.6 54.7,-1 81.8,-1.3 27.2,-0.3 54.2,-0.7 81.4,-0.7 27.1,0 54.5,0.4 81.8,0.7 27.3,0.3 54.7,0.7 68.3,0.8 L 900,13 v -49.030025 h -13.7 -67.54937 -78.04687 -85.15313 -81.8 -78.24687 l -87.25439,0.750626 h -82 -81.8 L 163.8,-35.2794 H 82 13.7 0 Z"
     fill="#125635"
     id="path28"
     sodipodi:nodetypes="ccsccsccccssccccccccccccccccc" />
</svg>
