<svg id="visual" viewBox="0 0 900 50" width="900" height="50" xmlns="http://www.w3.org/2000/svg" xmlns:xlink="http://www.w3.org/1999/xlink" version="1.1"><rect x="0" y="0" width="900" height="50" fill="#001220"></rect><path d="M0 16L13.7 14.5C27.3 13 54.7 10 82 8.7C109.3 7.3 136.7 7.7 163.8 9.3C191 11 218 14 245.2 13.7C272.3 13.3 299.7 9.7 327 7.8C354.3 6 381.7 6 409 7.2C436.3 8.3 463.7 10.7 491 12.7C518.3 14.7 545.7 16.3 573 16.8C600.3 17.3 627.7 16.7 654.8 16.5C682 16.3 709 16.7 736.2 16.7C763.3 16.7 790.7 16.3 818 15.8C845.3 15.3 872.7 14.7 886.3 14.3L900 14L900 51L886.3 51C872.7 51 845.3 51 818 51C790.7 51 763.3 51 736.2 51C709 51 682 51 654.8 51C627.7 51 600.3 51 573 51C545.7 51 518.3 51 491 51C463.7 51 436.3 51 409 51C381.7 51 354.3 51 327 51C299.7 51 272.3 51 245.2 51C218 51 191 51 163.8 51C136.7 51 109.3 51 82 51C54.7 51 27.3 51 13.7 51L0 51Z" fill="#26cda9"></path><path d="M0 28L13.7 26.7C27.3 25.3 54.7 22.7 82 21.2C109.3 19.7 136.7 19.3 163.8 20.7C191 22 218 25 245.2 25.2C272.3 25.3 299.7 22.7 327 22.2C354.3 21.7 381.7 23.3 409 24.7C436.3 26 463.7 27 491 26.5C518.3 26 545.7 24 573 24.3C600.3 24.7 627.7 27.3 654.8 28.7C682 30 709 30 736.2 30C763.3 30 790.7 30 818 28.2C845.3 26.3 872.7 22.7 886.3 20.8L900 19L900 51L886.3 51C872.7 51 845.3 51 818 51C790.7 51 763.3 51 736.2 51C709 51 682 51 654.8 51C627.7 51 600.3 51 573 51C545.7 51 518.3 51 491 51C463.7 51 436.3 51 409 51C381.7 51 354.3 51 327 51C299.7 51 272.3 51 245.2 51C218 51 191 51 163.8 51C136.7 51 109.3 51 82 51C54.7 51 27.3 51 13.7 51L0 51Z" fill="#16b08d"></path><path d="M0 31L13.7 32.2C27.3 33.3 54.7 35.7 82 37C109.3 38.3 136.7 38.7 163.8 37.7C191 36.7 218 34.3 245.2 34C272.3 33.7 299.7 35.3 327 35.5C354.3 35.7 381.7 34.3 409 33.7C436.3 33 463.7 33 491 32.7C518.3 32.3 545.7 31.7 573 31.5C600.3 31.3 627.7 31.7 654.8 31.8C682 32 709 32 736.2 32.3C763.3 32.7 790.7 33.3 818 34.3C845.3 35.3 872.7 36.7 886.3 37.3L900 38L900 51L886.3 51C872.7 51 845.3 51 818 51C790.7 51 763.3 51 736.2 51C709 51 682 51 654.8 51C627.7 51 600.3 51 573 51C545.7 51 518.3 51 491 51C463.7 51 436.3 51 409 51C381.7 51 354.3 51 327 51C299.7 51 272.3 51 245.2 51C218 51 191 51 163.8 51C136.7 51 109.3 51 82 51C54.7 51 27.3 51 13.7 51L0 51Z" fill="#009473"></path></svg>